<svg width="590" height="590" viewBox="0 0 590 590" fill="none" xmlns="http://www.w3.org/2000/svg">
<path fill-rule="evenodd" clip-rule="evenodd" d="M191.216 21.5088C190.271 21.8677 189.327 22.2318 188.383 22.6011C187.439 22.9705 186.498 23.3442 185.56 23.7223L184.813 21.8674C185.757 21.4868 186.704 21.1105 187.654 20.7387C188.604 20.3669 189.555 20.0004 190.506 19.6391L191.216 21.5088ZM179.97 26.0423L179.185 24.203C177.321 24.9989 175.469 25.812 173.629 26.642L174.452 28.465C176.279 27.6406 178.118 26.8329 179.97 26.0423ZM168.95 31.0158L168.091 29.2101C166.257 30.0832 164.436 30.9734 162.628 31.8803L163.525 33.668C165.321 32.7673 167.129 31.8831 168.95 31.0158ZM158.148 36.4347L157.215 34.6658C155.416 35.6151 153.63 36.5812 151.857 37.5639L152.827 39.3131C154.587 38.3372 156.361 37.3776 158.148 36.4347ZM147.58 42.2927L146.575 40.5639C144.814 41.588 143.067 42.6286 141.334 43.6855L142.376 45.393C144.097 44.3434 145.832 43.3098 147.58 42.2927ZM137.253 48.5901L136.177 46.9046C134.463 47.9992 132.763 49.11 131.077 50.2366L132.188 51.8995C133.862 50.7805 135.551 49.6773 137.253 48.5901ZM127.196 55.3112L126.051 53.6719C124.387 54.8349 122.737 56.0135 121.102 57.2076L122.282 58.8227C123.905 57.6368 125.544 56.4663 127.196 55.3112ZM117.431 62.443L116.218 60.8528C114.605 62.0832 113.007 63.3288 111.424 64.5894L112.669 66.1541C114.242 64.9021 115.829 63.665 117.431 62.443ZM107.973 69.9738L106.695 68.4355C105.133 69.7331 103.587 71.0456 102.056 72.3726L103.365 73.884C104.886 72.566 106.422 71.2626 107.973 69.9738ZM98.8382 77.891L97.4971 76.4073C95.9897 77.7697 94.498 79.1465 93.0221 80.5373L94.3938 81.9929C95.8596 80.6115 97.3411 79.2441 98.8382 77.891ZM90.0409 86.1812L88.6393 84.7546C87.1893 86.1791 85.7554 87.6175 84.3377 89.0694L85.7687 90.4666C87.1767 89.0246 88.6008 87.5961 90.0409 86.1812ZM81.5931 94.8329L80.1334 93.4657C78.7444 94.9486 77.3719 96.4449 76.016 97.9542L77.5038 99.2907C78.8504 97.7918 80.2136 96.3057 81.5931 94.8329ZM73.5107 103.829L71.9955 102.524C70.6703 104.062 69.3619 105.613 68.0704 107.176L69.6123 108.45C70.895 106.897 72.1945 105.357 73.5107 103.829ZM65.8091 113.152L64.2412 111.91C62.9814 113.501 61.7389 115.104 60.5136 116.718L62.1068 117.927C63.3238 116.323 64.5579 114.731 65.8091 113.152ZM58.5003 122.784L56.8824 121.608C55.6895 123.249 54.514 124.903 53.3561 126.567L54.9979 127.709C56.148 126.056 57.3154 124.414 58.5003 122.784ZM51.5957 132.709L49.9307 131.601C48.8063 133.291 47.6996 134.991 46.611 136.703L48.2984 137.776C49.3797 136.076 50.4789 134.387 51.5957 132.709ZM45.1062 142.91L43.397 141.872C42.343 143.607 41.3071 145.352 40.2896 147.107L42.0198 148.11C43.0305 146.367 44.0593 144.633 45.1062 142.91ZM39.0419 153.37L37.2914 152.403C36.3097 154.18 35.3465 155.966 34.4018 157.762L36.1718 158.693C37.1101 156.909 38.0669 155.135 39.0419 153.37ZM33.4125 164.072L31.6237 163.177C30.716 164.992 29.8271 166.816 28.957 168.649L30.7638 169.507C31.628 167.686 32.5109 165.875 33.4125 164.072ZM28.2275 174.995L26.4034 174.175C25.5712 176.026 24.758 177.885 23.964 179.752L25.8045 180.534C26.5932 178.68 27.4009 176.833 28.2275 174.995ZM23.4957 186.122L21.6395 185.378C20.884 187.261 20.1478 189.152 19.431 191.05L21.3021 191.757C22.014 189.871 22.7453 187.993 23.4957 186.122ZM19.225 197.434L17.3398 196.766C16.6623 198.679 16.0043 200.599 15.366 202.525L17.2646 203.154C17.8985 201.241 18.5521 199.334 19.225 197.434ZM15.4228 208.912L13.5118 208.322C12.9135 210.261 12.3351 212.206 11.7766 214.157L13.6994 214.708C14.2541 212.769 14.8286 210.837 15.4228 208.912ZM12.0959 220.537L10.1622 220.026C9.64438 221.987 9.1466 223.954 8.669 225.927L10.6128 226.398C11.0872 224.438 11.5816 222.485 12.0959 220.537ZM9.25046 232.29L7.29733 231.859C6.86097 233.839 6.44486 235.825 6.04912 237.815L8.01072 238.205C8.40377 236.228 8.81707 234.256 9.25046 232.29ZM6.89243 244.15L4.92319 243.8C4.56905 245.796 4.23536 247.797 3.92222 249.802L5.89826 250.11C6.20927 248.119 6.54071 246.132 6.89243 244.15ZM5.02693 256.095L3.04492 255.827C2.77354 257.836 2.52281 259.85 2.29283 261.867L4.27996 262.094C4.50837 260.09 4.7574 258.09 5.02693 256.095ZM3.65751 268.106L1.66611 267.921C1.47814 269.941 1.31098 271.965 1.16478 273.991L3.15959 274.135C3.3048 272.123 3.47081 270.113 3.65751 268.106ZM2.78744 280.165L0.790061 280.063C0.686088 282.089 0.603085 284.119 0.541194 286.151L2.54027 286.211C2.60173 284.193 2.68417 282.178 2.78744 280.165ZM2.41909 292.251L0.419187 292.232C0.399583 294.259 0.401043 296.289 0.423711 298.321L2.42358 298.299C2.40107 296.281 2.39961 294.265 2.41909 292.251ZM2.55396 304.343L0.554989 304.407C0.619775 306.432 0.705687 308.459 0.812864 310.487L2.81007 310.381C2.70364 308.367 2.61831 306.355 2.55396 304.343ZM3.19259 316.422L1.19801 316.57C1.34696 318.588 1.51706 320.607 1.70843 322.627L3.69951 322.438C3.50944 320.432 3.34052 318.427 3.19259 316.422ZM4.33322 328.457L2.34651 328.688C2.57948 330.699 2.83365 332.71 3.10915 334.722L5.09064 334.45C4.81702 332.453 4.56459 330.455 4.33322 328.457ZM5.97343 340.432L3.99802 340.744C4.3149 342.747 4.65306 344.749 5.01263 346.751L6.98112 346.397C6.62401 344.409 6.28815 342.421 5.97343 340.432ZM8.11026 352.329L6.14953 352.724C6.54975 354.714 6.9713 356.703 7.41427 358.691L9.36639 358.256C8.92643 356.281 8.50776 354.306 8.11026 352.329ZM10.7393 364.131L8.79663 364.606C9.27816 366.575 9.78091 368.542 10.305 370.508L12.2375 369.993C11.717 368.04 11.2176 366.086 10.7393 364.131ZM13.8553 375.819L11.9338 376.374C12.4951 378.317 13.0773 380.259 13.6807 382.198L15.5904 381.603C14.9911 379.677 14.4127 377.749 13.8553 375.819ZM17.4515 387.375L15.5544 388.008C16.1935 389.923 16.8533 391.834 17.534 393.743L19.4179 393.072C18.7417 391.175 18.0863 389.276 17.4515 387.375ZM21.5087 398.752L19.6389 399.462C20.0002 400.413 20.3668 401.364 20.7386 402.314C21.1104 403.264 21.4866 404.211 21.8672 405.155L23.7222 404.408C23.3441 403.47 22.9704 402.529 22.601 401.585C22.2317 400.641 21.8676 399.697 21.5087 398.752ZM26.0422 409.998L24.2029 410.783C24.9988 412.647 25.8119 414.499 26.6419 416.339L28.4649 415.516C27.6404 413.689 26.8328 411.849 26.0422 409.998ZM31.0157 421.018L29.21 421.877C30.0831 423.711 30.9733 425.532 31.8802 427.34L33.6679 426.443C32.7671 424.647 31.883 422.839 31.0157 421.018ZM36.4345 431.82L34.6657 432.753C35.615 434.552 36.5811 436.338 37.5638 438.111L39.313 437.141C38.337 435.381 37.3774 433.607 36.4345 431.82ZM42.2926 442.388L40.5638 443.393C41.5879 445.154 42.6285 446.901 43.6854 448.634L45.3929 447.592C44.3433 445.871 43.3097 444.136 42.2926 442.388ZM48.59 452.715L46.9045 453.791C47.9991 455.505 49.1099 457.205 50.2365 458.891L51.8993 457.78C50.7804 456.106 49.6772 454.417 48.59 452.715ZM55.3111 462.772L53.6718 463.917C54.8348 465.581 56.0134 467.231 57.2074 468.866L58.8226 467.686C57.6367 466.063 56.4661 464.424 55.3111 462.772ZM62.4429 472.537L60.8526 473.75C62.0831 475.363 63.3287 476.961 64.5893 478.544L66.1539 477.299C64.902 475.726 63.6648 474.139 62.4429 472.537ZM69.9736 481.995L68.4353 483.273C69.733 484.835 71.0455 486.381 72.3725 487.912L73.8839 486.603C72.5659 485.082 71.2624 483.546 69.9736 481.995ZM77.8909 491.13L76.4072 492.471C77.7696 493.978 79.1464 495.47 80.5372 496.946L81.9927 495.574C80.6114 494.108 79.244 492.627 77.8909 491.13ZM86.1811 499.927L84.7544 501.329C86.179 502.779 87.6174 504.213 89.0693 505.63L90.4666 504.199C89.0245 502.791 87.5959 501.367 86.1811 499.927ZM94.8328 508.375L93.4656 509.835C94.9485 511.224 96.4447 512.596 97.954 513.952L99.2906 512.464C97.7916 511.118 96.3056 509.754 94.8328 508.375ZM103.829 516.457L102.524 517.972C104.062 519.298 105.612 520.606 107.176 521.898L108.45 520.356C106.897 519.073 105.357 517.774 103.829 516.457ZM113.151 524.159L111.91 525.727C113.501 526.987 115.103 528.229 116.718 529.454L117.927 527.861C116.323 526.644 114.731 525.41 113.151 524.159ZM122.784 531.468L121.608 533.086C123.249 534.279 124.902 535.454 126.567 536.612L127.709 534.97C126.056 533.82 124.414 532.653 122.784 531.468ZM132.709 538.372L131.601 540.037C133.291 541.162 134.991 542.268 136.703 543.357L137.776 541.67C136.076 540.588 134.387 539.489 132.709 538.372ZM142.91 544.862L141.872 546.571C143.606 547.625 145.352 548.661 147.107 549.678L148.11 547.948C146.367 546.937 144.633 545.909 142.91 544.862ZM153.37 550.926L152.403 552.677C154.18 553.658 155.966 554.622 157.762 555.566L158.693 553.796C156.909 552.858 155.135 551.901 153.37 550.926ZM164.072 556.556L163.177 558.344C164.992 559.252 166.816 560.141 168.649 561.011L169.507 559.204C167.686 558.34 165.874 557.457 164.072 556.556ZM174.995 561.741L174.175 563.565C176.025 564.397 177.884 565.21 179.752 566.004L180.534 564.164C178.68 563.375 176.833 562.567 174.995 561.741ZM186.122 566.472L185.377 568.328C187.261 569.084 189.152 569.82 191.05 570.537L191.757 568.666C189.871 567.954 187.993 567.223 186.122 566.472ZM197.434 570.743L196.766 572.628C198.679 573.306 200.599 573.964 202.525 574.602L203.154 572.703C201.241 572.069 199.334 571.416 197.434 570.743ZM208.912 574.545L208.322 576.456C210.261 577.054 212.206 577.633 214.157 578.191L214.708 576.269C212.769 575.714 210.837 575.139 208.912 574.545ZM220.537 577.872L220.026 579.806C221.987 580.324 223.954 580.821 225.927 581.299L226.397 579.355C224.438 578.881 222.484 578.386 220.537 577.872ZM232.29 580.718L231.859 582.671C233.839 583.107 235.825 583.523 237.815 583.919L238.205 581.957C236.228 581.564 234.256 581.151 232.29 580.718ZM244.15 583.076L243.8 585.045C245.796 585.399 247.797 585.733 249.801 586.046L250.11 584.07C248.119 583.759 246.132 583.427 244.15 583.076ZM256.094 584.941L255.827 586.923C257.836 587.194 259.85 587.445 261.867 587.675L262.093 585.688C260.09 585.46 258.09 585.211 256.094 584.941ZM268.106 586.31L267.921 588.302C269.941 588.49 271.965 588.657 273.991 588.803L274.135 586.808C272.122 586.663 270.113 586.497 268.106 586.31ZM280.165 587.181L280.063 589.178C282.089 589.282 284.119 589.365 286.15 589.427L286.211 587.428C284.193 587.366 282.178 587.284 280.165 587.181ZM292.251 587.549L292.231 589.549C294.259 589.568 296.289 589.567 298.321 589.544L298.299 587.544C296.281 587.567 294.265 587.568 292.251 587.549ZM304.343 587.414L304.407 589.413C306.432 589.348 308.459 589.262 310.487 589.155L310.381 587.158C308.367 587.264 306.354 587.35 304.343 587.414ZM316.422 586.775L316.57 588.77C318.588 588.621 320.607 588.451 322.627 588.26L322.438 586.268C320.432 586.459 318.427 586.627 316.422 586.775ZM328.457 585.635L328.688 587.622C330.699 587.389 332.71 587.134 334.722 586.859L334.45 584.877C332.452 585.151 330.455 585.403 328.457 585.635ZM340.432 583.995L340.744 585.97C342.747 585.653 344.749 585.315 346.751 584.955L346.397 582.987C344.409 583.344 342.421 583.68 340.432 583.995ZM352.329 581.858L352.724 583.818C354.714 583.418 356.703 582.997 358.691 582.554L358.256 580.602C356.281 581.042 354.306 581.46 352.329 581.858ZM364.131 579.229L364.606 581.171C366.575 580.69 368.542 580.187 370.508 579.663L369.992 577.731C368.04 578.251 366.086 578.75 364.131 579.229ZM375.819 576.113L376.374 578.034C378.317 577.473 380.258 576.891 382.198 576.287L381.603 574.378C379.677 574.977 377.749 575.555 375.819 576.113ZM387.375 572.516L388.008 574.414C389.922 573.775 391.834 573.115 393.743 572.434L393.072 570.55C391.175 571.226 389.276 571.882 387.375 572.516ZM398.752 568.459C399.697 568.1 400.641 567.736 401.585 567.367C402.529 566.998 403.47 566.624 404.407 566.246L405.155 568.101C404.211 568.481 403.264 568.858 402.314 569.229C401.364 569.601 400.413 569.968 399.462 570.329L398.752 568.459ZM409.998 563.926L410.783 565.765C412.647 564.969 414.499 564.156 416.338 563.326L415.516 561.503C413.689 562.328 411.849 563.135 409.998 563.926ZM421.017 558.952L421.877 560.758C423.711 559.885 425.532 558.995 427.34 558.088L426.443 556.3C424.647 557.201 422.839 558.085 421.017 558.952ZM431.82 553.534L432.753 555.302C434.552 554.353 436.338 553.387 438.111 552.404L437.141 550.655C435.381 551.631 433.607 552.591 431.82 553.534ZM442.387 547.675L443.393 549.404C445.154 548.38 446.901 547.339 448.634 546.283L447.592 544.575C445.871 545.625 444.136 546.658 442.387 547.675ZM452.715 541.378L453.791 543.064C455.505 541.969 457.205 540.858 458.891 539.731L457.78 538.069C456.105 539.188 454.417 540.291 452.715 541.378ZM462.771 534.657L463.917 536.296C465.581 535.133 467.231 533.955 468.866 532.761L467.686 531.145C466.063 532.331 464.424 533.502 462.771 534.657ZM472.537 527.525L473.75 529.115C475.363 527.885 476.961 526.639 478.544 525.379L477.299 523.814C475.726 525.066 474.139 526.303 472.537 527.525ZM481.995 519.994L483.273 521.533C484.835 520.235 486.381 518.923 487.912 517.596L486.602 516.084C485.082 517.402 483.546 518.706 481.995 519.994ZM491.13 512.077L492.471 513.561C493.978 512.198 495.47 510.822 496.946 509.431L495.574 507.975C494.108 509.357 492.627 510.724 491.13 512.077ZM499.927 503.787L501.329 505.214C502.779 503.789 504.213 502.351 505.63 500.899L504.199 499.501C502.791 500.944 501.367 502.372 499.927 503.787ZM508.375 495.135L509.834 496.502C511.223 495.019 512.596 493.523 513.952 492.014L512.464 490.677C511.117 492.176 509.754 493.662 508.375 495.135ZM516.457 486.139L517.972 487.444C519.298 485.906 520.606 484.356 521.897 482.792L520.356 481.518C519.073 483.071 517.773 484.611 516.457 486.139ZM524.159 476.817L525.727 478.058C526.986 476.468 528.229 474.865 529.454 473.25L527.861 472.041C526.644 473.645 525.41 475.237 524.159 476.817ZM531.468 467.184L533.085 468.36C534.278 466.719 535.454 465.066 536.612 463.401L534.97 462.259C533.82 463.912 532.652 465.554 531.468 467.184ZM538.372 457.259L540.037 458.367C541.162 456.677 542.268 454.977 543.357 453.265L541.669 452.192C540.588 453.892 539.489 455.581 538.372 457.259ZM544.862 447.058L546.571 448.096C547.625 446.362 548.661 444.616 549.678 442.861L547.948 441.858C546.937 443.601 545.909 445.335 544.862 447.058ZM550.926 436.598L552.676 437.565C553.658 435.788 554.621 434.002 555.566 432.206L553.796 431.275C552.858 433.059 551.901 434.833 550.926 436.598ZM556.555 425.896L558.344 426.791C559.252 424.976 560.141 423.152 561.011 421.319L559.204 420.461C558.34 422.282 557.457 424.094 556.555 425.896ZM561.74 414.973L563.564 415.793C564.397 413.943 565.21 412.084 566.004 410.216L564.163 409.434C563.375 411.288 562.567 413.135 561.74 414.973ZM566.472 403.846L568.328 404.591C569.084 402.707 569.82 400.816 570.537 398.918L568.666 398.212C567.954 400.097 567.223 401.975 566.472 403.846ZM570.743 392.534L572.628 393.202C573.306 391.289 573.964 389.369 574.602 387.443L572.703 386.814C572.069 388.727 571.416 390.634 570.743 392.534ZM574.545 381.056L576.456 381.646C577.054 379.707 577.633 377.762 578.191 375.811L576.268 375.26C575.714 377.199 575.139 379.131 574.545 381.056ZM577.872 369.431L579.806 369.942C580.324 367.981 580.821 366.014 581.299 364.041L579.355 363.571C578.881 365.53 578.386 367.484 577.872 369.431ZM580.717 357.678L582.671 358.109C583.107 356.129 583.523 354.143 583.919 352.153L581.957 351.763C581.564 353.74 581.151 355.712 580.717 357.678ZM583.075 345.818L585.045 346.168C585.399 344.172 585.732 342.171 586.046 340.167L584.07 339.858C583.759 341.849 583.427 343.836 583.075 345.818ZM584.941 333.874L586.923 334.141C587.194 332.132 587.445 330.118 587.675 328.101L585.688 327.875C585.46 329.878 585.21 331.878 584.941 333.874ZM586.31 321.862L588.302 322.047C588.49 320.027 588.657 318.003 588.803 315.977L586.808 315.833C586.663 317.846 586.497 319.855 586.31 321.862ZM587.18 309.803L589.178 309.905C589.282 307.879 589.365 305.849 589.427 303.818L587.428 303.757C587.366 305.775 587.284 307.79 587.18 309.803ZM587.549 297.717L589.549 297.737C589.568 295.709 589.567 293.679 589.544 291.647L587.544 291.669C587.567 293.687 587.568 295.703 587.549 297.717ZM587.414 285.625L589.413 285.561C589.348 283.536 589.262 281.509 589.155 279.481L587.158 279.587C587.264 281.601 587.35 283.614 587.414 285.625ZM586.775 273.546L588.77 273.398C588.621 271.38 588.451 269.361 588.259 267.341L586.268 267.53C586.458 269.536 586.627 271.541 586.775 273.546ZM585.635 261.511L587.621 261.28C587.388 259.269 587.134 257.258 586.859 255.246L584.877 255.518C585.151 257.516 585.403 259.513 585.635 261.511ZM583.994 249.536L585.97 249.224C585.653 247.221 585.315 245.219 584.955 243.217L582.987 243.571C583.344 245.559 583.68 247.547 583.994 249.536ZM581.858 237.639L583.818 237.244C583.418 235.254 582.997 233.265 582.554 231.277L580.602 231.712C581.041 233.687 581.46 235.662 581.858 237.639ZM579.229 225.837L581.171 225.362C580.69 223.393 580.187 221.426 579.663 219.46L577.73 219.976C578.251 221.928 578.75 223.882 579.229 225.837ZM576.113 214.149L578.034 213.594C577.473 211.651 576.891 209.71 576.287 207.77L574.377 208.365C574.977 210.291 575.555 212.219 576.113 214.149ZM572.516 202.593L574.413 201.96C573.774 200.046 573.115 198.134 572.434 196.225L570.55 196.896C571.226 198.793 571.882 200.692 572.516 202.593ZM568.459 191.216L570.329 190.506C569.968 189.555 569.601 188.604 569.229 187.654C568.857 186.704 568.481 185.757 568.101 184.813L566.246 185.561C566.624 186.498 566.998 187.439 567.367 188.383C567.736 189.327 568.1 190.271 568.459 191.216ZM563.926 179.97L565.765 179.185C564.969 177.321 564.156 175.469 563.326 173.63L561.503 174.452C562.327 176.279 563.135 178.119 563.926 179.97ZM558.952 168.951L560.758 168.091C559.885 166.257 558.995 164.436 558.088 162.628L556.3 163.525C557.201 165.321 558.085 167.129 558.952 168.951ZM553.533 158.148L555.302 157.215C554.353 155.416 553.387 153.63 552.404 151.857L550.655 152.827C551.631 154.587 552.59 156.361 553.533 158.148ZM547.675 147.581L549.404 146.575C548.38 144.814 547.339 143.067 546.283 141.334L544.575 142.376C545.625 144.097 546.658 145.832 547.675 147.581ZM541.378 137.253L543.063 136.177C541.969 134.463 540.858 132.763 539.731 131.077L538.069 132.188C539.187 133.863 540.291 135.551 541.378 137.253ZM534.657 127.197L536.296 126.051C535.133 124.387 533.954 122.737 532.76 121.102L531.145 122.282C532.331 123.905 533.502 125.544 534.657 127.197ZM527.525 117.431L529.115 116.218C527.885 114.605 526.639 113.007 525.379 111.424L523.814 112.669C525.066 114.242 526.303 115.829 527.525 117.431ZM519.994 107.973L521.533 106.695C520.235 105.133 518.922 103.587 517.595 102.056L516.084 103.366C517.402 104.886 518.705 106.422 519.994 107.973ZM512.077 98.8383L513.561 97.4972C512.198 95.9898 510.822 94.4981 509.431 93.0222L507.975 94.3939C509.356 95.8597 510.724 97.3412 512.077 98.8383ZM503.787 90.041L505.213 88.6394C503.789 87.1894 502.35 85.7555 500.899 84.3378L499.501 85.7688C500.943 87.1768 502.372 88.6009 503.787 90.041ZM495.135 81.5932L496.502 80.1335C495.019 78.7446 493.523 77.372 492.014 76.0161L490.677 77.5039C492.176 78.8506 493.662 80.2137 495.135 81.5932ZM486.139 73.5108L487.444 71.9957C485.906 70.6704 484.355 69.362 482.792 68.0705L481.518 69.6124C483.071 70.8951 484.611 72.1947 486.139 73.5108ZM476.816 65.8092L478.058 64.2413C476.467 62.9816 474.864 61.739 473.25 60.5137L472.041 62.1069C473.645 63.3239 475.237 64.5581 476.816 65.8092ZM467.184 58.5004L468.36 56.8825C466.719 55.6896 465.065 54.5141 463.401 53.3562L462.259 54.9981C463.912 56.1481 465.554 57.3155 467.184 58.5004ZM457.259 51.5958L458.367 49.9308C456.677 48.8064 454.977 47.6998 453.265 46.6111L452.192 48.2985C453.892 49.3799 455.581 50.479 457.259 51.5958ZM447.058 45.1063L448.096 43.3971C446.361 42.3431 444.616 41.3072 442.861 40.2897L441.858 42.0199C443.601 43.0306 445.335 44.0594 447.058 45.1063ZM436.598 39.0421L437.565 37.2916C435.788 36.3098 434.002 35.3466 432.206 34.4019L431.275 36.172C433.059 37.1103 434.833 38.067 436.598 39.0421ZM425.896 33.4126L426.791 31.6238C424.976 30.7161 423.152 29.8272 421.319 28.9571L420.461 30.7639C422.282 31.6281 424.093 32.511 425.896 33.4126ZM414.973 28.2276L415.793 26.4036C413.942 25.5713 412.083 24.7581 410.216 23.9641L409.434 25.8046C411.288 26.5933 413.135 27.401 414.973 28.2276ZM403.846 23.4958L404.59 21.6396C402.707 20.8841 400.816 20.1479 398.918 19.4312L398.211 21.3022C400.097 22.0141 401.975 22.7454 403.846 23.4958ZM392.534 19.2252L393.202 17.3399C391.289 16.6624 389.369 16.0044 387.443 15.3661L386.814 17.2647C388.727 17.8986 390.634 18.5522 392.534 19.2252ZM381.056 15.423L381.646 13.5119C379.707 12.9136 377.762 12.3352 375.811 11.7767L375.26 13.6995C377.199 14.2542 379.131 14.8288 381.056 15.423ZM369.431 12.096L369.942 10.1623C367.981 9.64448 366.014 9.1467 364.041 8.66915L363.57 10.613C365.53 11.0873 367.483 11.5817 369.431 12.096ZM357.678 9.25058L358.109 7.29745C356.129 6.86107 354.143 6.44497 352.153 6.04923L351.763 8.01086C353.74 8.40389 355.712 8.8172 357.678 9.25058ZM345.818 6.89255L346.168 4.9233C344.172 4.5692 342.171 4.23548 340.166 3.92232L339.858 5.89837C341.849 6.20939 343.836 6.54082 345.818 6.89255ZM333.873 5.02707L334.141 3.04504C332.132 2.77367 330.118 2.52296 328.101 2.29294L327.874 4.28006C329.878 4.50844 331.878 4.75756 333.873 5.02707ZM321.862 3.65763L322.047 1.66621C320.027 1.47827 318.003 1.31111 315.977 1.16488L315.833 3.1597C317.845 3.30492 319.855 3.47092 321.862 3.65763ZM309.803 2.78758L309.905 0.790172C307.879 0.686236 305.849 0.603226 303.818 0.541291L303.757 2.54039C305.774 2.60186 307.79 2.68433 309.803 2.78758ZM297.717 2.41918L297.736 0.419301C295.709 0.399683 293.679 0.401188 291.647 0.423852L291.669 2.42369C293.687 2.40116 295.703 2.3997 297.717 2.41918ZM285.625 2.55408L285.561 0.555134C283.536 0.619909 281.509 0.705834 279.481 0.813002L279.587 2.81021C281.601 2.70376 283.613 2.61841 285.625 2.55408ZM273.546 3.19272L273.398 1.1981C271.38 1.34708 269.361 1.51716 267.341 1.70855L267.53 3.69966C269.536 3.5096 271.541 3.34067 273.546 3.19272ZM261.511 4.33334L261.28 2.34662C259.269 2.57962 257.258 2.83377 255.246 3.10927L255.518 5.09079C257.515 4.81719 259.513 4.5647 261.511 4.33334ZM249.536 5.97355L249.224 3.99812C247.221 4.31502 245.219 4.65317 243.217 5.01277L243.571 6.98126C245.559 6.62413 247.547 6.28826 249.536 5.97355ZM237.639 8.11036L237.244 6.14967C235.254 6.54987 233.265 6.97142 231.277 7.4144L231.712 9.36652C233.687 8.92654 235.662 8.50787 237.639 8.11036ZM225.837 10.7395L225.362 8.79673C223.393 9.27829 221.426 9.78101 219.46 10.3051L219.975 12.2376C221.928 11.7171 223.882 11.2178 225.837 10.7395ZM214.149 13.8554L213.594 11.934C211.651 12.4952 209.709 13.0774 207.77 13.6808L208.365 15.5905C210.291 14.9912 212.219 14.4129 214.149 13.8554ZM202.593 17.4517L201.96 15.5546C200.045 16.1936 198.134 16.8534 196.225 17.5341L196.896 19.418C198.793 18.7418 200.692 18.0864 202.593 17.4517Z" fill="#CEDBE3"/>
<path fill-rule="evenodd" clip-rule="evenodd" d="M220.393 100.277C326.854 58.6125 446.933 111.14 488.597 217.6C530.262 324.06 477.735 444.139 371.275 485.804C264.815 527.469 144.736 474.942 103.071 368.481C61.406 262.021 113.933 141.942 220.393 100.277ZM486.735 218.329C445.473 112.897 326.554 60.8775 221.122 102.14C115.691 143.402 63.671 262.321 104.933 367.752C146.195 473.184 265.114 525.204 370.546 483.941C475.978 442.679 527.997 323.76 486.735 218.329Z" fill="#CEDBE3"/>
<path fill-rule="evenodd" clip-rule="evenodd" d="M225.192 116.655C323.681 78.1098 434.768 126.704 473.313 225.192C511.858 323.681 463.264 434.768 364.776 473.313C266.287 511.858 155.2 463.264 116.655 364.776C78.1096 266.287 126.704 155.2 225.192 116.655ZM471.451 225.921C433.308 128.461 323.381 80.3748 225.921 118.517C128.461 156.66 80.3747 266.587 118.517 364.047C156.659 461.507 266.587 509.593 364.047 471.451C461.507 433.309 509.593 323.381 471.451 225.921Z" fill="#CEDBE3"/>
<path fill-rule="evenodd" clip-rule="evenodd" d="M240.6 154.653C317.745 124.461 404.759 162.524 434.951 239.669C465.143 316.814 427.08 403.828 349.935 434.02C272.789 464.212 185.776 426.149 155.584 349.003C125.392 271.858 163.455 184.845 240.6 154.653ZM433.088 240.398C403.299 164.281 317.446 126.726 241.329 156.515C165.213 186.304 127.657 272.158 157.446 348.275C187.236 424.391 273.089 461.947 349.206 432.157C425.322 402.368 462.878 316.514 433.088 240.398Z" fill="#CEDBE3"/>
<path d="M356.418 150.132C363.875 147.214 372.287 150.893 375.205 158.35C378.124 165.808 374.444 174.219 366.987 177.138C359.53 180.056 351.118 176.377 348.2 168.919C345.281 161.462 348.961 153.051 356.418 150.132Z" fill="#CEDBE3"/>
<path d="M330.907 84.9464C333.735 83.8394 336.926 85.2351 338.033 88.0637C339.14 90.8924 337.744 94.0829 334.916 95.1899C332.087 96.2969 328.897 94.9013 327.789 92.0726C326.682 89.244 328.078 86.0535 330.907 84.9464Z" fill="#CEDBE3"/>
<path d="M481.454 266.571C484.282 265.464 487.473 266.86 488.58 269.689C489.687 272.517 488.291 275.708 485.463 276.815C482.634 277.922 479.443 276.526 478.336 273.698C477.229 270.869 478.625 267.678 481.454 266.571Z" fill="#CEDBE3"/>
<path d="M457.519 164.257C460.348 163.15 463.539 164.546 464.646 167.375C465.753 170.203 464.357 173.394 461.528 174.501C458.7 175.608 455.509 174.212 454.402 171.384C453.295 168.555 454.691 165.364 457.519 164.257Z" fill="#CEDBE3"/>
<path d="M265.48 142.768C268.309 141.661 271.499 143.057 272.606 145.885C273.713 148.714 272.317 151.904 269.489 153.011C266.66 154.118 263.47 152.723 262.363 149.894C261.256 147.065 262.651 143.875 265.48 142.768Z" fill="#CEDBE3"/>
</svg>
